# xmcd CD database file
#
# Track frame offsets:
#	150
#	15341
#	32756
#	52396
#	67111
#	87024
#	104072
#	116930
#	131265
#	149459
#	167015
#	182986
#	198353
#	212515
#	231430
#
# Disc length: 3244 seconds
#
# Revision: 0
# Processed by: cddbd v1.5.2PL0 Copyright (c) Steve Scherf et al.
# Submitted via: CDex 1.70beta2
#
DISCID=e00caa0f
DTITLE=BossHoss - Internashville Urban Hymns
DYEAR=2005
DGENRE=Country
TTITLE0=Yee Haw
TTITLE1=Hey Ya!
TTITLE2=Toxic
TTITLE3=Loser
TTITLE4=Sabotage
TTITLE5=Hot In Herre
TTITLE6=Seven Nation Army
TTITLE7=Drowned In Lake Daniels
TTITLE8=A Little Less Conversation
TTITLE9=Hey Joe
TTITLE10=Eyes Without A Face
TTITLE11=Unbelievable
TTITLE12=Remedy
TTITLE13=Word Up
TTITLE14=Ice In The Sunshine
EXTD=YEAR: 2005
EXTT0=
EXTT1=
EXTT2=
EXTT3=
EXTT4=
EXTT5=
EXTT6=
EXTT7=
EXTT8=
EXTT9=
EXTT10=
EXTT11=
EXTT12=
EXTT13=
EXTT14=
PLAYORDER=
